# xmcd CD database file
#
# Track frame offsets:
#	150
#	21882
#	55437
#	89640
#	148418
#	174539
#	208805
#	272170
#	324894
#
# Disc length: 4482 seconds
#
# Revision: 0
# Processed by: cddbd v1.5.2PL0 Copyright (c) Steve Scherf et al.
# Submitted via: CDex 1.51
#
DISCID=8b118009
DTITLE=Wes Montgomery - Full House - The Complete Session CD2
DYEAR=1962
DGENRE=Jazz
TTITLE0=S.O.S. (Alt.)
TTITLE1=Born To Be Blue ( Take 1)
TTITLE2=Born To Be Blue ( Take 2)
TTITLE3=All Of You ( At Jorgies - 1961 )
TTITLE4=Heartstrings
TTITLE5=Summertime
TTITLE6=Bock To Bock
TTITLE7=Stella By Starlight
TTITLE8='Round Midnight
EXTD=YEAR: 1962
EXTT0=
EXTT1=
EXTT2=
EXTT3=
EXTT4=
EXTT5=
EXTT6=
EXTT7=
EXTT8=
PLAYORDER=
